<svg width="20" height="20" viewBox="0 0 20 20" fill="none" xmlns="http://www.w3.org/2000/svg">
<g clip-path="url(#clip0_1_44)">
<path d="M9.78335 14.7917H14.7167C14.6417 14.8584 14.5667 14.9167 14.4917 14.9834L10.9334 17.65C9.75835 18.525 7.84169 18.525 6.65835 17.65L3.09169 14.9834C2.30835 14.4 1.66669 13.1084 1.66669 12.1334V5.95838C1.66669 4.94172 2.44169 3.81672 3.39169 3.45838L7.54169 1.90005C8.22502 1.64172 9.35835 1.64172 10.0417 1.90005L14.1834 3.45838C14.975 3.75838 15.65 4.59172 15.8584 5.44172H9.77502C9.59169 5.44172 9.42502 5.45005 9.26669 5.45005C7.72502 5.54172 7.32502 6.10005 7.32502 7.85838V12.3834C7.33335 14.3 7.82502 14.7917 9.78335 14.7917Z" stroke="#3A38FF" stroke-width="1.66667" stroke-linecap="round" stroke-linejoin="round"/>
<path d="M7.33331 9.34998H18.3333" stroke="#3A38FF" stroke-width="1.66667" stroke-miterlimit="10" stroke-linecap="round" stroke-linejoin="round"/>
<path d="M18.3333 7.85005V12.475C18.3166 14.325 17.8083 14.7834 15.8833 14.7834H9.78331C7.82498 14.7834 7.33331 14.2917 7.33331 12.3667V7.84172C7.33331 6.09172 7.73331 5.53338 9.27498 5.43338C9.43331 5.43338 9.59998 5.42505 9.78331 5.42505H15.8833C17.8416 5.43338 18.3333 5.91672 18.3333 7.85005Z" stroke="#3A38FF" stroke-width="1.66667" stroke-linecap="round" stroke-linejoin="round"/>
<path d="M9.43335 12.7167H10.5417M12.2917 12.7167H15.0167" stroke="#3A38FF" stroke-width="1.66667" stroke-miterlimit="10" stroke-linecap="round" stroke-linejoin="round"/>
</g>
<defs>
<clipPath id="clip0_1_44">
<rect width="20" height="20" fill="white"/>
</clipPath>
</defs>
</svg>
